# xmcd
#
# Track frame offsets:
#	150
#	25008
#	29910
#	50825
#
# Disc length: 1073 seconds
#
# Revision: 1
# Processed by: cddbd v1.5.1PL0 Copyright (c) Steve Scherf et al.
# Submitted via: CDex 1.50Beta5
#
DISCID=33042f04
DTITLE=D'espairs Ray - MaVERiCK
DYEAR=2003
DGENRE=Rock
TTITLE0=MaVERiCK
TTITLE1=葬-bloodmarry-
TTITLE2=Marry of the blood
TTITLE3=闇に降る奇跡
EXTD=
EXTT0=
EXTT1=
EXTT2=
EXTT3=
PLAYORDER=
